<?xml version="1.0" encoding="UTF-8" standalone="no"?>
<!DOCTYPE svg PUBLIC "-//W3C//DTD SVG 1.1//EN"
 "http://www.w3.org/Graphics/SVG/1.1/DTD/svg11.dtd">
<!-- Generated by graphviz version 2.26.3 (20100126.1600)
 -->
<!-- Title: controllers_diagram Pages: 1 -->
<svg width="457pt" height="246pt"
 viewBox="0.00 0.00 457.00 246.00" xmlns="http://www.w3.org/2000/svg" xmlns:xlink="http://www.w3.org/1999/xlink">
<g id="graph1" class="graph" transform="scale(1 1) rotate(0) translate(4 242)">
<title>controllers_diagram</title>
<polygon fill="white" stroke="white" points="-4,5 -4,-242 454,-242 454,5 -4,5"/>
<!-- _diagram_info -->
<g id="node1" class="node"><title>_diagram_info</title>
<text text-anchor="start" x="9" y="-78.3" font-family="Times Roman,serif" font-size="13.00">Controllers diagram</text>
<text text-anchor="start" x="9" y="-61.3" font-family="Times Roman,serif" font-size="13.00">Date: Mar 21 2013 &#45; 15:26</text>
<text text-anchor="start" x="9" y="-44.3" font-family="Times Roman,serif" font-size="13.00">Migration version: 20130212065927</text>
<text text-anchor="start" x="9" y="-27.3" font-family="Times Roman,serif" font-size="13.00">Generated by RailRoady 1.1.0</text>
<text text-anchor="start" x="9" y="-10.3" font-family="Times Roman,serif" font-size="13.00">http://railroady.prestonlee.com</text>
</g>
<!-- ApplicationController -->
<g id="node2" class="node"><title>ApplicationController</title>
<polyline fill="none" stroke="black" points="222,-134.5 436,-134.5 "/>
<path fill="none" stroke="black" d="M436,-134.5C442,-134.5 448,-140.5 448,-146.5"/>
<polyline fill="none" stroke="black" points="448,-146.5 448,-224.5 "/>
<path fill="none" stroke="black" d="M448,-224.5C448,-230.5 442,-236.5 436,-236.5"/>
<polyline fill="none" stroke="black" points="436,-236.5 222,-236.5 "/>
<path fill="none" stroke="black" d="M222,-236.5C216,-236.5 210,-230.5 210,-224.5"/>
<polyline fill="none" stroke="black" points="210,-224.5 210,-146.5 "/>
<path fill="none" stroke="black" d="M210,-146.5C210,-140.5 216,-134.5 222,-134.5"/>
<text text-anchor="middle" x="329" y="-219.9" font-family="Times Roman,serif" font-size="14.00">ApplicationController</text>
<polyline fill="none" stroke="black" points="210,-210.5 448,-210.5 "/>
<text text-anchor="start" x="218" y="-193.9" font-family="Times Roman,serif" font-size="14.00">_one_time_conditions_valid_54?</text>
<polyline fill="none" stroke="black" points="210,-184.5 448,-184.5 "/>
<polyline fill="none" stroke="black" points="210,-160.5 448,-160.5 "/>
<text text-anchor="start" x="218" y="-143.9" font-family="Times Roman,serif" font-size="14.00">_layout</text>
</g>
</g>
</svg>
