<?xml version="1.0" encoding="UTF-8" standalone="no"?>
<!DOCTYPE svg PUBLIC "-//W3C//DTD SVG 1.1//EN"
 "http://www.w3.org/Graphics/SVG/1.1/DTD/svg11.dtd">
<!-- Generated by graphviz version 2.26.3 (20100126.1600)
 -->
<!-- Title: models_diagram Pages: 1 -->
<svg width="921pt" height="176pt"
 viewBox="0.00 0.00 921.00 176.00" xmlns="http://www.w3.org/2000/svg" xmlns:xlink="http://www.w3.org/1999/xlink">
<g id="graph1" class="graph" transform="scale(1 1) rotate(0) translate(4 172)">
<title>models_diagram</title>
<polygon fill="white" stroke="white" points="-4,5 -4,-172 918,-172 918,5 -4,5"/>
<!-- _diagram_info -->
<g id="node1" class="node"><title>_diagram_info</title>
<text text-anchor="start" x="8" y="-151.8" font-family="Times Roman,serif" font-size="13.00">Models diagram</text>
<text text-anchor="start" x="8" y="-134.8" font-family="Times Roman,serif" font-size="13.00">Date: Mar 21 2013 &#45; 15:26</text>
<text text-anchor="start" x="8" y="-117.8" font-family="Times Roman,serif" font-size="13.00">Migration version: 20130212065927</text>
<text text-anchor="start" x="8" y="-100.8" font-family="Times Roman,serif" font-size="13.00">Generated by RailRoady 1.1.0</text>
<text text-anchor="start" x="8" y="-83.8" font-family="Times Roman,serif" font-size="13.00">http://railroady.prestonlee.com</text>
</g>
<!-- Material -->
<g id="node2" class="node"><title>Material</title>
<ellipse fill="none" stroke="black" cx="252" cy="-19" rx="51.1176" ry="18.3848"/>
<text text-anchor="middle" x="252" y="-15.4" font-family="Times Roman,serif" font-size="14.00">Material</text>
</g>
<!-- Client -->
<g id="node3" class="node"><title>Client</title>
<ellipse fill="none" stroke="black" cx="511" cy="-121" rx="39.8075" ry="18.3848"/>
<text text-anchor="middle" x="511" y="-117.4" font-family="Times Roman,serif" font-size="14.00">Client</text>
</g>
<!-- Contact -->
<g id="node8" class="node"><title>Contact</title>
<ellipse fill="none" stroke="black" cx="511" cy="-19" rx="50.2046" ry="18.3848"/>
<text text-anchor="middle" x="511" y="-15.4" font-family="Times Roman,serif" font-size="14.00">Contact</text>
</g>
<!-- Client&#45;&gt;Contact -->
<g id="edge2" class="edge"><title>Client&#45;&gt;Contact</title>
<path fill="none" stroke="#913a05" d="M511,-94.0151C511,-79.8348 511,-62.4446 511,-47.9795"/>
<ellipse fill="none" stroke="#913a05" cx="511" cy="-98.2916" rx="4" ry="4"/>
<polygon fill="#913a05" stroke="#913a05" points="511,-47.5898 515.5,-37.5897 511,-42.5898 511,-37.5898 511,-37.5898 511,-37.5898 511,-42.5898 506.5,-37.5898 511,-47.5898 511,-47.5898"/>
</g>
<!-- Production -->
<g id="node4" class="node"><title>Production</title>
<ellipse fill="none" stroke="black" cx="633" cy="-121" rx="63.8479" ry="18.3848"/>
<text text-anchor="middle" x="633" y="-117.4" font-family="Times Roman,serif" font-size="14.00">Production</text>
</g>
<!-- User -->
<g id="node5" class="node"><title>User</title>
<ellipse fill="none" stroke="black" cx="749" cy="-121" rx="33.9411" ry="18.3848"/>
<text text-anchor="middle" x="749" y="-117.4" font-family="Times Roman,serif" font-size="14.00">User</text>
</g>
<!-- Addstock -->
<g id="node6" class="node"><title>Addstock</title>
<ellipse fill="none" stroke="black" cx="857" cy="-121" rx="55.8614" ry="18.3848"/>
<text text-anchor="middle" x="857" y="-117.4" font-family="Times Roman,serif" font-size="14.00">Addstock</text>
</g>
<!-- Product -->
<g id="node7" class="node"><title>Product</title>
<ellipse fill="none" stroke="black" cx="317" cy="-121" rx="48.9975" ry="18.3848"/>
<text text-anchor="middle" x="317" y="-117.4" font-family="Times Roman,serif" font-size="14.00">Product</text>
</g>
<!-- Product&#45;&gt;Material -->
<g id="edge6" class="edge"><title>Product&#45;&gt;Material</title>
<path fill="none" stroke="#59df08" d="M300.977,-95.8559C291.268,-80.6213 278.893,-61.2014 269.011,-45.6945"/>
<ellipse fill="none" stroke="#59df08" cx="303.23" cy="-99.3912" rx="4.00002" ry="4.00002"/>
<polygon fill="#59df08" stroke="#59df08" points="268.894,-45.5109 267.315,-34.6593 266.207,-41.2943 263.52,-37.0777 263.52,-37.0777 263.52,-37.0777 266.207,-41.2943 259.725,-39.496 268.894,-45.5109 268.894,-45.5109"/>
</g>
<!-- Pcategory -->
<g id="node9" class="node"><title>Pcategory</title>
<ellipse fill="none" stroke="black" cx="382" cy="-19" rx="60.8112" ry="18.3848"/>
<text text-anchor="middle" x="382" y="-15.4" font-family="Times Roman,serif" font-size="14.00">Pcategory</text>
</g>
<!-- Product&#45;&gt;Pcategory -->
<g id="edge4" class="edge"><title>Product&#45;&gt;Pcategory</title>
<path fill="none" stroke="#f00b2c" d="M334.234,-93.9566C343.653,-79.1747 355.287,-60.9184 364.715,-46.1239"/>
<polygon fill="#f00b2c" stroke="#f00b2c" points="333.995,-94.3312 324.826,-100.346 331.308,-98.5478 328.621,-102.764 328.621,-102.764 328.621,-102.764 331.308,-98.5478 332.416,-105.183 333.995,-94.3312 333.995,-94.3312"/>
<polygon fill="#f00b2c" stroke="#f00b2c" points="364.887,-45.8548 374.056,-39.84 367.574,-41.6382 370.261,-37.4216 370.261,-37.4216 370.261,-37.4216 367.574,-41.6382 366.466,-35.0032 364.887,-45.8548 364.887,-45.8548"/>
</g>
</g>
</svg>
