<?xml version="1.0" encoding="UTF-8" standalone="no"?>
<!DOCTYPE svg PUBLIC "-//W3C//DTD SVG 1.1//EN"
 "http://www.w3.org/Graphics/SVG/1.1/DTD/svg11.dtd">
<!-- Generated by graphviz version 2.26.3 (20100126.1600)
 -->
<!-- Title: models_diagram Pages: 1 -->
<svg width="1316pt" height="494pt"
 viewBox="0.00 0.00 1316.00 494.00" xmlns="http://www.w3.org/2000/svg" xmlns:xlink="http://www.w3.org/1999/xlink">
<g id="graph1" class="graph" transform="scale(1 1) rotate(0) translate(4 490)">
<title>models_diagram</title>
<polygon fill="white" stroke="white" points="-4,5 -4,-490 1313,-490 1313,5 -4,5"/>
<!-- _diagram_info -->
<g id="node1" class="node"><title>_diagram_info</title>
<text text-anchor="start" x="8" y="-381.8" font-family="Times Roman,serif" font-size="13.00">Models diagram</text>
<text text-anchor="start" x="8" y="-364.8" font-family="Times Roman,serif" font-size="13.00">Date: Mar 21 2013 &#45; 15:25</text>
<text text-anchor="start" x="8" y="-347.8" font-family="Times Roman,serif" font-size="13.00">Migration version: 20130212065927</text>
<text text-anchor="start" x="8" y="-330.8" font-family="Times Roman,serif" font-size="13.00">Generated by RailRoady 1.1.0</text>
<text text-anchor="start" x="8" y="-313.8" font-family="Times Roman,serif" font-size="13.00">http://railroady.prestonlee.com</text>
</g>
<!-- Material -->
<g id="node2" class="node"><title>Material</title>
<polyline fill="none" stroke="black" points="137.5,-10 278.5,-10 "/>
<path fill="none" stroke="black" d="M278.5,-10C284.5,-10 290.5,-16 290.5,-22"/>
<polyline fill="none" stroke="black" points="290.5,-22 290.5,-158 "/>
<path fill="none" stroke="black" d="M290.5,-158C290.5,-164 284.5,-170 278.5,-170"/>
<polyline fill="none" stroke="black" points="278.5,-170 137.5,-170 "/>
<path fill="none" stroke="black" d="M137.5,-170C131.5,-170 125.5,-164 125.5,-158"/>
<polyline fill="none" stroke="black" points="125.5,-158 125.5,-22 "/>
<path fill="none" stroke="black" d="M125.5,-22C125.5,-16 131.5,-10 137.5,-10"/>
<text text-anchor="middle" x="208" y="-153.4" font-family="Times Roman,serif" font-size="14.00">Material</text>
<polyline fill="none" stroke="black" points="125.5,-144 290.5,-144 "/>
<text text-anchor="start" x="133.5" y="-127.4" font-family="Times Roman,serif" font-size="14.00">id :integer</text>
<text text-anchor="start" x="133.5" y="-109.4" font-family="Times Roman,serif" font-size="14.00">name :string</text>
<text text-anchor="start" x="133.5" y="-91.4" font-family="Times Roman,serif" font-size="14.00">stock :decimal</text>
<text text-anchor="start" x="133.5" y="-73.4" font-family="Times Roman,serif" font-size="14.00">product_id :integer</text>
<text text-anchor="start" x="133.5" y="-55.4" font-family="Times Roman,serif" font-size="14.00">created_at :datetime</text>
<text text-anchor="start" x="133.5" y="-37.4" font-family="Times Roman,serif" font-size="14.00">updated_at :datetime</text>
<text text-anchor="start" x="133.5" y="-19.4" font-family="Times Roman,serif" font-size="14.00">mf :decimal</text>
</g>
<!-- Client -->
<g id="node3" class="node"><title>Client</title>
<polyline fill="none" stroke="black" points="515.5,-271 660.5,-271 "/>
<path fill="none" stroke="black" d="M660.5,-271C666.5,-271 672.5,-277 672.5,-283"/>
<polyline fill="none" stroke="black" points="672.5,-283 672.5,-419 "/>
<path fill="none" stroke="black" d="M672.5,-419C672.5,-425 666.5,-431 660.5,-431"/>
<polyline fill="none" stroke="black" points="660.5,-431 515.5,-431 "/>
<path fill="none" stroke="black" d="M515.5,-431C509.5,-431 503.5,-425 503.5,-419"/>
<polyline fill="none" stroke="black" points="503.5,-419 503.5,-283 "/>
<path fill="none" stroke="black" d="M503.5,-283C503.5,-277 509.5,-271 515.5,-271"/>
<text text-anchor="middle" x="588" y="-414.4" font-family="Times Roman,serif" font-size="14.00">Client</text>
<polyline fill="none" stroke="black" points="503.5,-405 672.5,-405 "/>
<text text-anchor="start" x="511.5" y="-388.4" font-family="Times Roman,serif" font-size="14.00">id :integer</text>
<text text-anchor="start" x="511.5" y="-370.4" font-family="Times Roman,serif" font-size="14.00">name :string</text>
<text text-anchor="start" x="511.5" y="-352.4" font-family="Times Roman,serif" font-size="14.00">address :text</text>
<text text-anchor="start" x="511.5" y="-334.4" font-family="Times Roman,serif" font-size="14.00">phone_number :string</text>
<text text-anchor="start" x="511.5" y="-316.4" font-family="Times Roman,serif" font-size="14.00">info :text</text>
<text text-anchor="start" x="511.5" y="-298.4" font-family="Times Roman,serif" font-size="14.00">created_at :datetime</text>
<text text-anchor="start" x="511.5" y="-280.4" font-family="Times Roman,serif" font-size="14.00">updated_at :datetime</text>
</g>
<!-- Contact -->
<g id="node8" class="node"><title>Contact</title>
<polyline fill="none" stroke="black" points="515.5,-1 660.5,-1 "/>
<path fill="none" stroke="black" d="M660.5,-1C666.5,-1 672.5,-7 672.5,-13"/>
<polyline fill="none" stroke="black" points="672.5,-13 672.5,-167 "/>
<path fill="none" stroke="black" d="M672.5,-167C672.5,-173 666.5,-179 660.5,-179"/>
<polyline fill="none" stroke="black" points="660.5,-179 515.5,-179 "/>
<path fill="none" stroke="black" d="M515.5,-179C509.5,-179 503.5,-173 503.5,-167"/>
<polyline fill="none" stroke="black" points="503.5,-167 503.5,-13 "/>
<path fill="none" stroke="black" d="M503.5,-13C503.5,-7 509.5,-1 515.5,-1"/>
<text text-anchor="middle" x="588" y="-162.4" font-family="Times Roman,serif" font-size="14.00">Contact</text>
<polyline fill="none" stroke="black" points="503.5,-153 672.5,-153 "/>
<text text-anchor="start" x="511.5" y="-136.4" font-family="Times Roman,serif" font-size="14.00">id :integer</text>
<text text-anchor="start" x="511.5" y="-118.4" font-family="Times Roman,serif" font-size="14.00">name :string</text>
<text text-anchor="start" x="511.5" y="-100.4" font-family="Times Roman,serif" font-size="14.00">designation :string</text>
<text text-anchor="start" x="511.5" y="-82.4" font-family="Times Roman,serif" font-size="14.00">email :string</text>
<text text-anchor="start" x="511.5" y="-64.4" font-family="Times Roman,serif" font-size="14.00">phone_number :string</text>
<text text-anchor="start" x="511.5" y="-46.4" font-family="Times Roman,serif" font-size="14.00">client_id :integer</text>
<text text-anchor="start" x="511.5" y="-28.4" font-family="Times Roman,serif" font-size="14.00">created_at :datetime</text>
<text text-anchor="start" x="511.5" y="-10.4" font-family="Times Roman,serif" font-size="14.00">updated_at :datetime</text>
</g>
<!-- Client&#45;&gt;Contact -->
<g id="edge2" class="edge"><title>Client&#45;&gt;Contact</title>
<path fill="none" stroke="#954df5" d="M588,-262.643C588,-239.055 588,-213.408 588,-189.275"/>
<ellipse fill="none" stroke="#954df5" cx="588" cy="-266.918" rx="4" ry="4"/>
<polygon fill="#954df5" stroke="#954df5" points="588,-189.036 592.5,-179.036 588,-184.036 588,-179.036 588,-179.036 588,-179.036 588,-184.036 583.5,-179.036 588,-189.036 588,-189.036"/>
</g>
<!-- Production -->
<g id="node4" class="node"><title>Production</title>
<polyline fill="none" stroke="black" points="701.5,-289 842.5,-289 "/>
<path fill="none" stroke="black" d="M842.5,-289C848.5,-289 854.5,-295 854.5,-301"/>
<polyline fill="none" stroke="black" points="854.5,-301 854.5,-401 "/>
<path fill="none" stroke="black" d="M854.5,-401C854.5,-407 848.5,-413 842.5,-413"/>
<polyline fill="none" stroke="black" points="842.5,-413 701.5,-413 "/>
<path fill="none" stroke="black" d="M701.5,-413C695.5,-413 689.5,-407 689.5,-401"/>
<polyline fill="none" stroke="black" points="689.5,-401 689.5,-301 "/>
<path fill="none" stroke="black" d="M689.5,-301C689.5,-295 695.5,-289 701.5,-289"/>
<text text-anchor="middle" x="772" y="-396.4" font-family="Times Roman,serif" font-size="14.00">Production</text>
<polyline fill="none" stroke="black" points="689.5,-387 854.5,-387 "/>
<text text-anchor="start" x="697.5" y="-370.4" font-family="Times Roman,serif" font-size="14.00">id :integer</text>
<text text-anchor="start" x="697.5" y="-352.4" font-family="Times Roman,serif" font-size="14.00">quantity :decimal</text>
<text text-anchor="start" x="697.5" y="-334.4" font-family="Times Roman,serif" font-size="14.00">product_id :integer</text>
<text text-anchor="start" x="697.5" y="-316.4" font-family="Times Roman,serif" font-size="14.00">created_at :datetime</text>
<text text-anchor="start" x="697.5" y="-298.4" font-family="Times Roman,serif" font-size="14.00">updated_at :datetime</text>
</g>
<!-- User -->
<g id="node5" class="node"><title>User</title>
<polyline fill="none" stroke="black" points="884,-217 1114,-217 "/>
<path fill="none" stroke="black" d="M1114,-217C1120,-217 1126,-223 1126,-229"/>
<polyline fill="none" stroke="black" points="1126,-229 1126,-473 "/>
<path fill="none" stroke="black" d="M1126,-473C1126,-479 1120,-485 1114,-485"/>
<polyline fill="none" stroke="black" points="1114,-485 884,-485 "/>
<path fill="none" stroke="black" d="M884,-485C878,-485 872,-479 872,-473"/>
<polyline fill="none" stroke="black" points="872,-473 872,-229 "/>
<path fill="none" stroke="black" d="M872,-229C872,-223 878,-217 884,-217"/>
<text text-anchor="middle" x="999" y="-468.4" font-family="Times Roman,serif" font-size="14.00">User</text>
<polyline fill="none" stroke="black" points="872,-459 1126,-459 "/>
<text text-anchor="start" x="880" y="-442.4" font-family="Times Roman,serif" font-size="14.00">id :integer</text>
<text text-anchor="start" x="880" y="-424.4" font-family="Times Roman,serif" font-size="14.00">email :string</text>
<text text-anchor="start" x="880" y="-406.4" font-family="Times Roman,serif" font-size="14.00">encrypted_password :string</text>
<text text-anchor="start" x="880" y="-388.4" font-family="Times Roman,serif" font-size="14.00">reset_password_token :string</text>
<text text-anchor="start" x="880" y="-370.4" font-family="Times Roman,serif" font-size="14.00">reset_password_sent_at :datetime</text>
<text text-anchor="start" x="880" y="-352.4" font-family="Times Roman,serif" font-size="14.00">remember_created_at :datetime</text>
<text text-anchor="start" x="880" y="-334.4" font-family="Times Roman,serif" font-size="14.00">sign_in_count :integer</text>
<text text-anchor="start" x="880" y="-316.4" font-family="Times Roman,serif" font-size="14.00">current_sign_in_at :datetime</text>
<text text-anchor="start" x="880" y="-298.4" font-family="Times Roman,serif" font-size="14.00">last_sign_in_at :datetime</text>
<text text-anchor="start" x="880" y="-280.4" font-family="Times Roman,serif" font-size="14.00">current_sign_in_ip :string</text>
<text text-anchor="start" x="880" y="-262.4" font-family="Times Roman,serif" font-size="14.00">last_sign_in_ip :string</text>
<text text-anchor="start" x="880" y="-244.4" font-family="Times Roman,serif" font-size="14.00">created_at :datetime</text>
<text text-anchor="start" x="880" y="-226.4" font-family="Times Roman,serif" font-size="14.00">updated_at :datetime</text>
</g>
<!-- Addstock -->
<g id="node6" class="node"><title>Addstock</title>
<polyline fill="none" stroke="black" points="1155.5,-289 1296.5,-289 "/>
<path fill="none" stroke="black" d="M1296.5,-289C1302.5,-289 1308.5,-295 1308.5,-301"/>
<polyline fill="none" stroke="black" points="1308.5,-301 1308.5,-401 "/>
<path fill="none" stroke="black" d="M1308.5,-401C1308.5,-407 1302.5,-413 1296.5,-413"/>
<polyline fill="none" stroke="black" points="1296.5,-413 1155.5,-413 "/>
<path fill="none" stroke="black" d="M1155.5,-413C1149.5,-413 1143.5,-407 1143.5,-401"/>
<polyline fill="none" stroke="black" points="1143.5,-401 1143.5,-301 "/>
<path fill="none" stroke="black" d="M1143.5,-301C1143.5,-295 1149.5,-289 1155.5,-289"/>
<text text-anchor="middle" x="1226" y="-396.4" font-family="Times Roman,serif" font-size="14.00">Addstock</text>
<polyline fill="none" stroke="black" points="1143.5,-387 1308.5,-387 "/>
<text text-anchor="start" x="1151.5" y="-370.4" font-family="Times Roman,serif" font-size="14.00">id :integer</text>
<text text-anchor="start" x="1151.5" y="-352.4" font-family="Times Roman,serif" font-size="14.00">stock :decimal</text>
<text text-anchor="start" x="1151.5" y="-334.4" font-family="Times Roman,serif" font-size="14.00">material_id :integer</text>
<text text-anchor="start" x="1151.5" y="-316.4" font-family="Times Roman,serif" font-size="14.00">created_at :datetime</text>
<text text-anchor="start" x="1151.5" y="-298.4" font-family="Times Roman,serif" font-size="14.00">updated_at :datetime</text>
</g>
<!-- Product -->
<g id="node7" class="node"><title>Product</title>
<polyline fill="none" stroke="black" points="280,-253 474,-253 "/>
<path fill="none" stroke="black" d="M474,-253C480,-253 486,-259 486,-265"/>
<polyline fill="none" stroke="black" points="486,-265 486,-437 "/>
<path fill="none" stroke="black" d="M486,-437C486,-443 480,-449 474,-449"/>
<polyline fill="none" stroke="black" points="474,-449 280,-449 "/>
<path fill="none" stroke="black" d="M280,-449C274,-449 268,-443 268,-437"/>
<polyline fill="none" stroke="black" points="268,-437 268,-265 "/>
<path fill="none" stroke="black" d="M268,-265C268,-259 274,-253 280,-253"/>
<text text-anchor="middle" x="377" y="-432.4" font-family="Times Roman,serif" font-size="14.00">Product</text>
<polyline fill="none" stroke="black" points="268,-423 486,-423 "/>
<text text-anchor="start" x="276" y="-406.4" font-family="Times Roman,serif" font-size="14.00">id :integer</text>
<text text-anchor="start" x="276" y="-388.4" font-family="Times Roman,serif" font-size="14.00">drawing_number :string</text>
<text text-anchor="start" x="276" y="-370.4" font-family="Times Roman,serif" font-size="14.00">available_stock :integer</text>
<text text-anchor="start" x="276" y="-352.4" font-family="Times Roman,serif" font-size="14.00">multiplication_factor :decimal</text>
<text text-anchor="start" x="276" y="-334.4" font-family="Times Roman,serif" font-size="14.00">client_id :integer</text>
<text text-anchor="start" x="276" y="-316.4" font-family="Times Roman,serif" font-size="14.00">created_at :datetime</text>
<text text-anchor="start" x="276" y="-298.4" font-family="Times Roman,serif" font-size="14.00">updated_at :datetime</text>
<text text-anchor="start" x="276" y="-280.4" font-family="Times Roman,serif" font-size="14.00">unit_cost :decimal</text>
<text text-anchor="start" x="276" y="-262.4" font-family="Times Roman,serif" font-size="14.00">name :string</text>
</g>
<!-- Product&#45;&gt;Material -->
<g id="edge6" class="edge"><title>Product&#45;&gt;Material</title>
<path fill="none" stroke="#40ddac" d="M308.996,-245.976C294.588,-223.724 279.514,-200.445 265.539,-178.862"/>
<ellipse fill="none" stroke="#40ddac" cx="311.175" cy="-249.341" rx="4.00002" ry="4.00002"/>
<polygon fill="#40ddac" stroke="#40ddac" points="265.471,-178.757 263.813,-167.917 262.754,-174.56 260.036,-170.363 260.036,-170.363 260.036,-170.363 262.754,-174.56 256.259,-172.809 265.471,-178.757 265.471,-178.757"/>
</g>
<!-- Pcategory -->
<g id="node9" class="node"><title>Pcategory</title>
<polyline fill="none" stroke="black" points="319.5,-37 460.5,-37 "/>
<path fill="none" stroke="black" d="M460.5,-37C466.5,-37 472.5,-43 472.5,-49"/>
<polyline fill="none" stroke="black" points="472.5,-49 472.5,-131 "/>
<path fill="none" stroke="black" d="M472.5,-131C472.5,-137 466.5,-143 460.5,-143"/>
<polyline fill="none" stroke="black" points="460.5,-143 319.5,-143 "/>
<path fill="none" stroke="black" d="M319.5,-143C313.5,-143 307.5,-137 307.5,-131"/>
<polyline fill="none" stroke="black" points="307.5,-131 307.5,-49 "/>
<path fill="none" stroke="black" d="M307.5,-49C307.5,-43 313.5,-37 319.5,-37"/>
<text text-anchor="middle" x="390" y="-126.4" font-family="Times Roman,serif" font-size="14.00">Pcategory</text>
<polyline fill="none" stroke="black" points="307.5,-117 472.5,-117 "/>
<text text-anchor="start" x="315.5" y="-100.4" font-family="Times Roman,serif" font-size="14.00">id :integer</text>
<text text-anchor="start" x="315.5" y="-82.4" font-family="Times Roman,serif" font-size="14.00">name :string</text>
<text text-anchor="start" x="315.5" y="-64.4" font-family="Times Roman,serif" font-size="14.00">created_at :datetime</text>
<text text-anchor="start" x="315.5" y="-46.4" font-family="Times Roman,serif" font-size="14.00">updated_at :datetime</text>
</g>
<!-- Product&#45;&gt;Pcategory -->
<g id="edge4" class="edge"><title>Product&#45;&gt;Pcategory</title>
<path fill="none" stroke="#dbfe78" d="M382.399,-242.609C383.914,-212.184 385.512,-180.108 386.849,-153.258"/>
<polygon fill="#dbfe78" stroke="#dbfe78" points="382.394,-242.711 377.402,-252.475 382.145,-247.705 381.896,-252.699 381.896,-252.699 381.896,-252.699 382.145,-247.705 386.391,-252.923 382.394,-242.711 382.394,-242.711"/>
<polygon fill="#dbfe78" stroke="#dbfe78" points="386.851,-153.225 391.843,-143.461 387.1,-148.231 387.348,-143.237 387.348,-143.237 387.348,-143.237 387.1,-148.231 382.854,-143.013 386.851,-153.225 386.851,-153.225"/>
</g>
</g>
</svg>
